<svg width="233" height="37" viewBox="0 0 233 37" fill="none" xmlns="http://www.w3.org/2000/svg">
<path d="M0 32H32V0H0V32ZM58.4023 15.2145H51.9932C51.9477 14.6842 51.8265 14.2032 51.6295 13.7714C51.4402 13.3395 51.175 12.9683 50.8341 12.6577C50.5008 12.3395 50.0955 12.0971 49.6182 11.9305C49.1409 11.7562 48.5992 11.6691 47.9932 11.6691C46.9326 11.6691 46.0348 11.9267 45.3 12.4418C44.5727 12.957 44.0197 13.6956 43.6409 14.6577C43.2697 15.6198 43.0841 16.7752 43.0841 18.1236C43.0841 19.5479 43.2735 20.7411 43.6523 21.7032C44.0386 22.6577 44.5955 23.3774 45.3227 23.8623C46.05 24.3395 46.925 24.5782 47.9477 24.5782C48.5311 24.5782 49.0538 24.5062 49.5159 24.3623C49.978 24.2108 50.3795 23.9948 50.7205 23.7145C51.0614 23.4342 51.3379 23.0971 51.55 22.7032C51.7697 22.3017 51.9174 21.8509 51.9932 21.3509L58.4023 21.3964C58.3265 22.3812 58.05 23.385 57.5727 24.4077C57.0955 25.4229 56.4174 26.3623 55.5386 27.2259C54.6674 28.082 53.5879 28.7714 52.3 29.2941C51.0121 29.8168 49.5159 30.0782 47.8114 30.0782C45.675 30.0782 43.7583 29.6198 42.0614 28.7032C40.372 27.7865 39.0348 26.438 38.05 24.6577C37.0727 22.8774 36.5841 20.6994 36.5841 18.1236C36.5841 15.5327 37.0841 13.3509 38.0841 11.5782C39.0841 9.79788 40.4326 8.45318 42.1295 7.54409C43.8265 6.62742 45.7205 6.16909 47.8114 6.16909C49.2811 6.16909 50.6333 6.36985 51.8682 6.77136C53.103 7.17288 54.1864 7.76 55.1182 8.53273C56.05 9.29788 56.8 10.2411 57.3682 11.3623C57.9364 12.4835 58.2811 13.7676 58.4023 15.2145ZM59.7597 29.76V12.3055H65.8506V15.6236H66.0324C66.3506 14.3964 66.8544 13.4986 67.5438 12.9305C68.2407 12.3623 69.0551 12.0782 69.9869 12.0782C70.2597 12.0782 70.5286 12.1009 70.7938 12.1464C71.0665 12.1842 71.3278 12.2411 71.5778 12.3168V17.6691C71.2672 17.563 70.8847 17.4835 70.4301 17.4305C69.9756 17.3774 69.5854 17.3509 69.2597 17.3509C68.646 17.3509 68.093 17.4911 67.6006 17.7714C67.1157 18.0441 66.7331 18.4305 66.4528 18.9305C66.1725 19.4229 66.0324 20.0024 66.0324 20.6691V29.76H59.7597ZM76.3841 36.3055C75.6644 36.3055 74.9788 36.2486 74.3273 36.135C73.6758 36.0289 73.1038 35.8812 72.6114 35.6918L73.975 31.2373C74.4902 31.4191 74.9598 31.5365 75.3841 31.5895C75.8159 31.6426 76.1833 31.6123 76.4864 31.4986C76.797 31.385 77.0205 31.1691 77.1568 30.8509L77.2932 30.5327L71.1568 12.3055H77.7023L80.5205 24.3964H80.7023L83.5659 12.3055H90.1568L83.7932 31.2145C83.475 32.1767 83.0129 33.0403 82.4068 33.8055C81.8083 34.5782 81.0205 35.188 80.0432 35.635C79.0659 36.082 77.8462 36.3055 76.3841 36.3055ZM90.3409 36.3055V12.3055H96.5682V15.3509H96.7045C96.9318 14.76 97.2652 14.2183 97.7045 13.7259C98.1439 13.2259 98.6894 12.8282 99.3409 12.5327C99.9924 12.2297 100.75 12.0782 101.614 12.0782C102.765 12.0782 103.86 12.385 104.898 12.9986C105.943 13.6123 106.792 14.5782 107.443 15.8964C108.102 17.2145 108.432 18.9267 108.432 21.0327C108.432 23.0479 108.117 24.7183 107.489 26.0441C106.867 27.3698 106.034 28.3585 104.989 29.01C103.951 29.6615 102.811 29.9873 101.568 29.9873C100.75 29.9873 100.019 29.8547 99.375 29.5895C98.7386 29.3168 98.1932 28.9494 97.7386 28.4873C97.2917 28.0176 96.947 27.4873 96.7045 26.8964H96.6136V36.3055H90.3409ZM96.4773 21.0327C96.4773 21.8812 96.5871 22.6161 96.8068 23.2373C97.0341 23.8509 97.3523 24.3282 97.7614 24.6691C98.178 25.0024 98.6742 25.1691 99.25 25.1691C99.8258 25.1691 100.314 25.0062 100.716 24.6805C101.125 24.3471 101.436 23.8736 101.648 23.26C101.867 22.6388 101.977 21.8964 101.977 21.0327C101.977 20.1691 101.867 19.4305 101.648 18.8168C101.436 18.1956 101.125 17.7221 100.716 17.3964C100.314 17.063 99.8258 16.8964 99.25 16.8964C98.6742 16.8964 98.178 17.063 97.7614 17.3964C97.3523 17.7221 97.0341 18.1956 96.8068 18.8168C96.5871 19.4305 96.4773 20.1691 96.4773 21.0327ZM119.869 12.3055V16.8509H108.369V12.3055H119.869ZM110.596 8.12364H116.869V24.1464C116.869 24.3888 116.91 24.5933 116.994 24.76C117.077 24.9191 117.206 25.0403 117.38 25.1236C117.554 25.1994 117.778 25.2373 118.051 25.2373C118.24 25.2373 118.46 25.2145 118.71 25.1691C118.967 25.1236 119.157 25.0858 119.278 25.0555L120.187 29.4645C119.907 29.5479 119.505 29.6502 118.982 29.7714C118.467 29.8926 117.854 29.9721 117.141 30.01C115.702 30.0858 114.494 29.938 113.516 29.5668C112.539 29.188 111.804 28.5933 111.312 27.7827C110.82 26.9721 110.581 25.957 110.596 24.7373V8.12364ZM129.05 30.0782C127.156 30.0782 125.535 29.7032 124.186 28.9532C122.838 28.1956 121.804 27.1426 121.084 25.7941C120.364 24.438 120.005 22.8661 120.005 21.0782C120.005 19.2903 120.364 17.7221 121.084 16.3736C121.804 15.0176 122.838 13.9645 124.186 13.2145C125.535 12.457 127.156 12.0782 129.05 12.0782C130.944 12.0782 132.565 12.457 133.914 13.2145C135.262 13.9645 136.296 15.0176 137.016 16.3736C137.736 17.7221 138.095 19.2903 138.095 21.0782C138.095 22.8661 137.736 24.438 137.016 25.7941C136.296 27.1426 135.262 28.1956 133.914 28.9532C132.565 29.7032 130.944 30.0782 129.05 30.0782ZM129.095 25.4418C129.626 25.4418 130.084 25.2638 130.47 24.9077C130.857 24.5517 131.156 24.0441 131.368 23.385C131.58 22.7259 131.686 21.9418 131.686 21.0327C131.686 20.1161 131.58 19.332 131.368 18.6805C131.156 18.0214 130.857 17.5138 130.47 17.1577C130.084 16.8017 129.626 16.6236 129.095 16.6236C128.535 16.6236 128.054 16.8017 127.652 17.1577C127.251 17.5138 126.944 18.0214 126.732 18.6805C126.52 19.332 126.414 20.1161 126.414 21.0327C126.414 21.9418 126.52 22.7259 126.732 23.385C126.944 24.0441 127.251 24.5517 127.652 24.9077C128.054 25.2638 128.535 25.4418 129.095 25.4418ZM143.234 29.76L136.37 6.48727H143.416L146.598 20.8055H146.78L150.552 6.48727H156.098L159.87 20.8509H160.052L163.234 6.48727H170.28L163.416 29.76H157.37L153.416 16.76H153.234L149.28 29.76H143.234ZM173.648 30.0327C172.535 30.0327 171.55 29.8509 170.694 29.4873C169.845 29.1161 169.179 28.5555 168.694 27.8055C168.209 27.0555 167.966 26.1009 167.966 24.9418C167.966 23.9873 168.129 23.1729 168.455 22.4986C168.781 21.8168 169.235 21.26 169.819 20.8282C170.402 20.3964 171.08 20.0668 171.853 19.8395C172.633 19.6123 173.474 19.4645 174.376 19.3964C175.353 19.3206 176.137 19.2297 176.728 19.1236C177.326 19.01 177.758 18.8547 178.023 18.6577C178.288 18.4532 178.421 18.1842 178.421 17.8509V17.8055C178.421 17.3509 178.247 17.0024 177.898 16.76C177.55 16.5176 177.103 16.3964 176.557 16.3964C175.959 16.3964 175.47 16.5289 175.091 16.7941C174.72 17.0517 174.497 17.4494 174.421 17.9873H168.648C168.724 16.9267 169.061 15.9494 169.66 15.0555C170.266 14.1539 171.148 13.4342 172.307 12.8964C173.466 12.3509 174.913 12.0782 176.648 12.0782C177.898 12.0782 179.02 12.2259 180.012 12.5214C181.004 12.8092 181.849 13.2145 182.546 13.7373C183.243 14.2524 183.773 14.8585 184.137 15.5555C184.508 16.2448 184.694 16.9948 184.694 17.8055V29.76H178.83V27.3055H178.694C178.345 27.957 177.921 28.4835 177.421 28.885C176.929 29.2865 176.364 29.5782 175.728 29.76C175.099 29.9418 174.406 30.0327 173.648 30.0327ZM175.694 26.0782C176.171 26.0782 176.618 25.9797 177.035 25.7827C177.459 25.5858 177.804 25.3017 178.069 24.9305C178.334 24.5592 178.466 24.1085 178.466 23.5782V22.1236C178.3 22.1918 178.122 22.2562 177.932 22.3168C177.751 22.3774 177.554 22.4342 177.341 22.4873C177.137 22.5403 176.917 22.5895 176.682 22.635C176.455 22.6805 176.216 22.7221 175.966 22.76C175.482 22.8358 175.084 22.9608 174.773 23.135C174.47 23.3017 174.243 23.51 174.091 23.76C173.948 24.0024 173.876 24.2752 173.876 24.5782C173.876 25.063 174.046 25.4342 174.387 25.6918C174.728 25.9494 175.163 26.0782 175.694 26.0782ZM196.5 12.3055V16.8509H185V12.3055H196.5ZM187.227 8.12364H193.5V24.1464C193.5 24.3888 193.542 24.5933 193.625 24.76C193.708 24.9191 193.837 25.0403 194.011 25.1236C194.186 25.1994 194.409 25.2373 194.682 25.2373C194.871 25.2373 195.091 25.2145 195.341 25.1691C195.598 25.1236 195.788 25.0858 195.909 25.0555L196.818 29.4645C196.538 29.5479 196.136 29.6502 195.614 29.7714C195.098 29.8926 194.485 29.9721 193.773 30.01C192.333 30.0858 191.125 29.938 190.148 29.5668C189.17 29.188 188.436 28.5933 187.943 27.7827C187.451 26.9721 187.212 25.957 187.227 24.7373V8.12364ZM205.681 30.0782C203.787 30.0782 202.166 29.7032 200.818 28.9532C199.469 28.1956 198.435 27.1426 197.715 25.7941C196.996 24.438 196.636 22.8661 196.636 21.0782C196.636 19.2903 196.996 17.7221 197.715 16.3736C198.435 15.0176 199.469 13.9645 200.818 13.2145C202.166 12.457 203.787 12.0782 205.681 12.0782C207.393 12.0782 208.874 12.3888 210.124 13.01C211.382 13.6236 212.355 14.4948 213.045 15.6236C213.734 16.7448 214.083 18.063 214.09 19.5782H208.272C208.189 18.6615 207.924 17.9645 207.477 17.4873C207.037 17.0024 206.469 16.76 205.772 16.76C205.227 16.76 204.749 16.9191 204.34 17.2373C203.931 17.5479 203.613 18.0214 203.386 18.6577C203.159 19.2865 203.045 20.0782 203.045 21.0327C203.045 21.9873 203.159 22.7827 203.386 23.4191C203.613 24.0479 203.931 24.5214 204.34 24.8395C204.749 25.1502 205.227 25.3055 205.772 25.3055C206.234 25.3055 206.643 25.1994 206.999 24.9873C207.355 24.7676 207.643 24.4494 207.863 24.0327C208.09 23.6085 208.227 23.0933 208.272 22.4873H214.09C214.068 24.0252 213.715 25.3661 213.034 26.51C212.352 27.6464 211.386 28.5252 210.136 29.1464C208.893 29.7676 207.409 30.0782 205.681 30.0782ZM221.351 19.9418V29.76H215.078V6.48727H221.124V15.6236H221.306C221.7 14.51 222.355 13.6426 223.272 13.0214C224.188 12.3926 225.291 12.0782 226.578 12.0782C227.813 12.0782 228.885 12.3585 229.794 12.9191C230.711 13.4797 231.419 14.2524 231.919 15.2373C232.427 16.2221 232.677 17.3509 232.669 18.6236V29.76H226.397V19.9418C226.404 19.0782 226.188 18.4002 225.749 17.9077C225.317 17.4153 224.7 17.1691 223.897 17.1691C223.389 17.1691 222.942 17.2827 222.556 17.51C222.177 17.7297 221.881 18.0479 221.669 18.4645C221.465 18.8736 221.359 19.3661 221.351 19.9418Z" fill="#89CEFF"/>
</svg>
